# xmcd CD database file
#
# Track frame offsets:
#	150
#	13184
#	29931
#	41971
#	54388
#	65012
#	76093
#	87825
#	100769
#	114347
#	124138
#	136208
#	148374
#	160061
#	171541
#	182733
#	197940
#	213764
#	224962
#	237074
#	249441
#	262428
#	275367
#
# Disc length: 3902 seconds
#
# Revision: 3
# Processed by: cddbd v1.5.2PL0 Copyright (c) Steve Scherf et al.
# Submitted via: CDex 1.51
#
DISCID=680f3c17
DTITLE=Hvìzdy americké country -  CD_1 Zlate hity
DYEAR=2000
DGENRE=Country
TTITLE0=Lynn Anderson - Rose Garden
TTITLE1=Johnny Cash - A Boy Named Sue
TTITLE2=Dolly Parton - Jolene
TTITLE3=Charlie Rich - The Most Beautiful Girl
TTITLE4=Jim Reeves - He'll Have to Go
TTITLE5=Roger Miller - King of the Road
TTITLE6=Patsy Cline - Walking after Midnight
TTITLE7=Bobby Bare - Detroit City
TTITLE8=Loretta Lynn - Coal Miner's Daughter
TTITLE9=Charlie Rich - Lonely Weekends
TTITLE10=Willie Nelson - Funny How Time Slips Away
TTITLE11=Tammy Wynette - Stand by Your Man
TTITLE12=Jim Reeves - Welcome to My World
TTITLE13=Patsy Cline - Crazy Dreams
TTITLE14=Don Gibson - Oh Lonesome Me
TTITLE15=Billie Jo Spears - Blanket on the Ground
TTITLE16=Dolly Parton - Heartbreaker
TTITLE17=Conway Twitty - It's Only Make Believe
TTITLE18=Donna Farg - Funny Face
TTITLE19=Johnny Cash - I Walk the Line
TTITLE20=Merle Haggard - The Fightin' Side of Me
TTITLE21=Chet Atkins - South
TTITLE22=Kenny Rogers - Lady
EXTD=YEAR: 2000
EXTT0=
EXTT1=
EXTT2=
EXTT3=
EXTT4=
EXTT5=
EXTT6=
EXTT7=
EXTT8=
EXTT9=
EXTT10=
EXTT11=
EXTT12=
EXTT13=
EXTT14=
EXTT15=
EXTT16=
EXTT17=
EXTT18=
EXTT19=
EXTT20=
EXTT21=
EXTT22=
PLAYORDER=
